<svg width="23" height="13" viewBox="0 0 23 13" fill="none" xmlns="http://www.w3.org/2000/svg">
<path fill-rule="evenodd" clip-rule="evenodd" d="M22.4019 2.45923C22.4019 2.95923 22.3949 3.44629 22.3519 3.94226C22.3159 4.50562 22.2438 5.06616 22.1359 5.62024C22.1296 5.67578 22.12 5.73096 22.1068 5.78528C21.835 7.15991 21.1897 8.4331 20.2418 9.46533C19.8615 9.9021 19.4342 10.2958 18.9679 10.6393C18.2554 11.1831 17.473 11.6288 16.6418 11.9644C16.5189 12.0143 16.3899 12.0643 16.2599 12.1083C15.9209 12.2303 15.5829 12.3313 15.2368 12.4253C14.2834 12.6758 13.3058 12.823 12.3209 12.8643C12.0758 12.8783 11.8379 12.8862 11.6008 12.8862C11.3639 12.8862 11.1259 12.8793 10.8809 12.8643C9.89587 12.823 8.91833 12.6758 7.96484 12.4253C7.61987 12.3313 7.28088 12.2313 6.94189 12.1083C6.81189 12.0643 6.68286 12.0143 6.55981 11.9644C5.72864 11.6288 4.94641 11.1831 4.23389 10.6393C3.76746 10.2958 3.34021 9.9021 2.95984 9.46533C2.01208 8.4331 1.36682 7.15991 1.09485 5.78528C1.08167 5.73096 1.07202 5.67578 1.0658 5.62024C0.958008 5.06616 0.885864 4.50562 0.849854 3.94226C0.806885 3.44226 0.799805 2.95532 0.799805 2.45923C0.806885 2.25024 0.806885 2.04126 0.821899 1.83228C0.821899 1.68823 0.828857 1.53223 0.842896 1.39331C0.86853 1.26514 0.880493 1.13477 0.878784 1.00415C0.878784 1.00427 1.13086 1.19824 1.57886 1.50427H1.58582C1.9458 1.74927 2.44287 2.05823 3.05481 2.39722C3.45483 2.6272 3.91187 2.86523 4.40186 3.09729C5.11719 3.4353 5.85181 3.7312 6.60181 3.98328C7.05579 4.13428 7.5238 4.27124 8.00183 4.3833C8.9458 4.61658 9.9104 4.75659 10.8818 4.80127C11.0688 4.80823 11.2559 4.81519 11.4508 4.81519H11.7509C11.9448 4.81519 12.1328 4.80823 12.3198 4.80127C13.2911 4.75659 14.2559 4.61658 15.1998 4.3833C15.6818 4.26831 16.1498 4.13123 16.5999 3.98328C17.3499 3.7312 18.0845 3.4353 18.7998 3.09729C19.2898 2.86719 19.7428 2.62927 20.1469 2.39722C20.7588 2.05823 21.2628 1.74219 21.6228 1.49731C22.0768 1.19727 22.3229 0.997314 22.3229 0.997314C22.3212 1.12781 22.3333 1.25818 22.3588 1.38623C22.3738 1.53027 22.3798 1.68628 22.3798 1.8252C22.3948 2.0343 22.3948 2.24329 22.4019 2.45227V2.45923Z" fill="white"/>
</svg>
